<?xml version="1.0" encoding="utf-8"?>
<!-- Generator: Adobe Illustrator 17.1.0, SVG Export Plug-In . SVG Version: 6.00 Build 0)  -->
<!DOCTYPE svg PUBLIC "-//W3C//DTD SVG 1.1//EN" "http://www.w3.org/Graphics/SVG/1.1/DTD/svg11.dtd">
<svg version="1.1" id="Capa_1" xmlns="http://www.w3.org/2000/svg" xmlns:xlink="http://www.w3.org/1999/xlink" x="0px" y="0px"
	 viewBox="0 0 841.9 595.3" enable-background="new 0 0 841.9 595.3" xml:space="preserve">
<path fill="#FFFFFF" d="M294.6,538.9c-0.1,0-0.2,0-0.2,0H134.2c-3.9,0-7.5-2.1-9.4-5.5c-1.9-3.4-1.9-7.6,0.1-10.9l143.4-242.3
	c2-3.3,5.5-5.3,9.4-5.3h81.1L325.9,218c-19.5-33.7-19.5-74,0-107.8c19.5-33.7,54.4-53.9,93.3-53.9h3.4c39,0,73.8,20.1,93.3,53.9
	c19.5,33.7,19.5,74,0,107.8l-32.8,56.8h81.1c3.8,0,7.4,2,9.4,5.3l18.9,32c0.1,0.1,0.2,0.3,0.2,0.4l25.2,42.6
	c0.1,0.1,0.1,0.2,0.2,0.3l98.8,167c2,3.4,2,7.5,0.1,10.9c-1.9,3.4-5.5,5.5-9.4,5.5H480.9c-0.1,0-0.3,0-0.4,0H294.8
	C294.7,538.9,294.6,538.9,294.6,538.9z M489.9,517.1h198.8l-84.2-142.3l-129.2,59.9L489.9,517.1z M308.7,517.1h159l-15.4-86.8
	c-0.9-4.9,1.7-9.7,6.1-11.8L593.3,356l-14.8-25l-124.2,42.4c-3,1-6.3,0.7-9-0.9c-2.7-1.6-4.6-4.3-5.2-7.5l-2-11.3l-7.8,13.5
	c-1.9,3.4-5.5,5.4-9.4,5.4c-3.9,0-7.5-2.1-9.4-5.4l-40.8-70.7h-2.6L308.7,517.1z M153.2,517.1h133l59.4-220.6h-61.8L153.2,517.1z
	 M455.1,324.4l4.3,24.3l107.9-36.8l-9.1-15.4h-87L455.1,324.4z M419.3,78.2c-31.1,0-58.9,16.1-74.5,43c-15.5,26.9-15.5,59.1,0,86
	l76.2,131.9l76.2-131.9c15.5-26.9,15.5-59.1,0-86c-15.5-26.9-43.4-43-74.5-43C422.6,78.2,419.3,78.2,419.3,78.2z M420.9,210.8
	c-24.4,0-44.2-19.8-44.2-44.2s19.8-44.2,44.2-44.2c24.4,0,44.2,19.8,44.2,44.2S445.3,210.8,420.9,210.8z M420.9,144.2
	c-12.4,0-22.4,10.1-22.4,22.4c0,12.4,10.1,22.4,22.4,22.4c12.4,0,22.4-10.1,22.4-22.4C443.4,154.3,433.3,144.2,420.9,144.2z"/>
</svg>
